<svg xmlns="http://www.w3.org/2000/svg" width="112" height="24" viewBox="0 0 112 24" fill="none">
  <path d="M12.17 23.6264C5.38716 23.6128 0 18.352 0 11.7589C0.0139564 5.23388 5.4709 -0.0405467 12.17 0.000234907C18.9109 0.0274227 24.3399 5.34263 24.312 11.8677C24.2702 18.3656 18.8272 23.64 12.17 23.6264ZM23.4607 11.8677C23.5165 5.87279 18.4503 0.856649 12.2956 0.802273C6.02916 0.747898 0.879252 5.61451 0.823427 11.6638C0.767601 17.6995 5.76399 22.77 11.8211 22.8244C18.3108 22.8787 23.4188 18.0665 23.4607 11.8677Z" fill="white"/>
  <path d="M9.64453 18.053C9.79805 17.9715 9.83992 17.9307 9.88179 17.9171C11.0402 17.754 11.2216 17.5637 11.2216 16.4218C11.2356 14.8585 11.2356 13.3088 11.2216 11.7455C11.2216 11.4056 11.3193 11.2153 11.6542 11.0794C11.9892 10.9434 12.2823 10.7123 12.6591 10.4812C12.6591 10.9978 12.6731 11.5144 12.6591 12.0173C12.6452 12.3708 12.7847 12.5475 13.1476 12.5339C13.9431 12.5067 14.7386 12.5203 15.5341 12.4252C16.4273 12.3164 16.9437 11.7183 17.1112 10.8755C17.2926 9.96467 16.9577 9.2306 16.1622 8.72762C15.4504 8.26543 14.6409 8.18387 13.8035 8.23825C13.4686 8.26543 13.343 8.17028 13.4825 7.72168C14.5014 7.83043 15.5341 7.85761 16.525 8.04793C17.8648 8.31981 18.6743 9.31217 18.7022 10.4676C18.7162 11.4328 18.2556 12.1125 17.4043 12.5611C17.2647 12.6291 17.1252 12.697 16.9856 12.7786C16.9716 12.7786 16.9716 12.8058 16.9577 12.8738C17.0833 12.9145 17.1949 12.9825 17.3205 13.0097C18.5068 13.3767 19.2047 14.1924 19.2186 15.2391C19.2326 16.3402 18.465 17.4277 17.3485 17.7676C16.8042 17.9307 16.2319 18.053 15.6737 18.0666C13.7756 18.1074 11.8636 18.0938 9.96553 18.1074C9.89575 18.1074 9.82596 18.0938 9.64453 18.053ZM14.3618 17.6724C14.7805 17.6316 15.2271 17.618 15.6597 17.5229C16.6785 17.2918 17.3764 16.5305 17.4462 15.6333C17.5299 14.6138 16.9856 13.771 15.9528 13.3631C15.0038 12.9825 14.0129 12.9825 13.022 13.0913C12.8824 13.1049 12.6731 13.336 12.6731 13.4719C12.6452 14.6817 12.6452 15.8916 12.6731 17.1015C12.6731 17.2374 12.8685 17.4685 13.008 17.4957C13.4407 17.5908 13.8873 17.618 14.3618 17.6724Z" fill="white"/>
  <path d="M9.53188 15.7826C8.08042 15.7826 6.62895 15.7826 5.17749 15.7826C5.17749 15.7554 5.16353 15.7282 5.16353 15.6874C5.27518 15.6602 5.37288 15.633 5.48453 15.633C6.26609 15.5651 6.60104 15.2932 6.615 14.5183C6.64291 11.9763 6.64291 9.42064 6.615 6.87859C6.60104 6.02217 6.294 5.79107 5.38683 5.72311C5.31705 5.72311 5.23331 5.68232 5.09375 5.65514C5.19144 5.58717 5.23331 5.54639 5.27518 5.54639C7.04764 5.58717 8.83406 5.54639 10.6065 5.68233C11.737 5.76389 12.6302 6.41639 12.9931 7.5039C13.328 8.46907 13.1885 9.42064 12.4767 10.2363C11.9742 10.8072 11.3183 11.1063 10.5647 11.1335C9.76914 11.1743 8.97363 11.1471 8.08042 11.1471C8.08042 11.3102 8.08042 11.5685 8.08042 11.8404C8.08042 12.6832 8.06646 13.5396 8.09437 14.3824C8.12229 15.334 8.35954 15.5651 9.32254 15.633C9.40627 15.633 9.47606 15.6738 9.55979 15.6874C9.53188 15.7146 9.53188 15.7418 9.53188 15.7826ZM9.25275 10.7528C9.99244 10.7936 10.5647 10.481 10.9973 9.91002C11.5835 9.13517 11.5974 7.88453 11.0113 7.01452C10.453 6.1717 9.61562 5.98139 8.63867 6.09014C8.13624 6.14452 8.03855 6.33483 8.0525 6.78343C8.09437 7.7214 8.06646 8.65938 8.06646 9.59736C8.0525 10.7392 8.0525 10.7392 9.25275 10.7528Z" fill="white"/>
  <path d="M11.1655 8.38766C10.6909 8.22453 10.2443 8.04781 9.75586 7.87109C10.1885 7.87109 10.5932 7.87109 11.0678 7.87109C11.0817 8.04781 11.1375 8.25172 11.1655 8.38766Z" fill="white"/>
  <path d="M37.3464 5.79142C37.3464 6.43033 37.2627 6.98768 37.1091 7.43628C36.9556 7.88488 36.7463 8.25191 36.4811 8.53739C36.2159 8.82286 35.9228 9.02676 35.5739 9.1627C35.239 9.28505 34.8761 9.35302 34.4993 9.35302H32.35V11.4601H33.5782V14.5187H28.498V11.4601H29.7262V5.26126H28.498V2.20264H34.6109C34.9738 2.20264 35.3088 2.2842 35.6437 2.43373C35.9647 2.58326 36.2578 2.81436 36.509 3.11342C36.7602 3.41249 36.9556 3.77953 37.1091 4.22812C37.2766 4.67672 37.3464 5.19329 37.3464 5.79142ZM34.597 6.38955C34.597 6.04971 34.5132 5.77783 34.3597 5.57392C34.2062 5.37001 34.0248 5.26126 33.8015 5.26126H32.35V7.53144H33.7177C33.9689 7.53144 34.1643 7.44988 34.3318 7.27316C34.5133 7.08284 34.597 6.79737 34.597 6.38955Z" fill="white"/>
  <path d="M42.0924 14.5051V11.4465H43.1252C43.0693 11.2154 43.0135 10.9707 42.9577 10.726C42.9019 10.4813 42.846 10.2502 42.7902 10.0055H40.9759C40.934 10.2366 40.8782 10.4813 40.8224 10.726C40.7665 10.9707 40.7247 11.2018 40.6828 11.4465H41.6597V14.5051H37.752V11.4465H38.5056C38.8685 9.89677 39.2453 8.36067 39.6082 6.83815C39.971 5.30204 40.3478 3.76593 40.6967 2.20264H43.6695C44.0602 3.75234 44.4371 5.30204 44.7999 6.83815C45.1768 8.38785 45.5675 9.92396 46.0002 11.4465H47.019V14.5051H42.0924ZM41.8691 5.8322C41.7574 6.29439 41.6597 6.77018 41.562 7.23237C41.4643 7.69456 41.3667 8.15676 41.255 8.60536H42.4832L41.8691 5.8322Z" fill="white"/>
  <path d="M58.2661 11.7043C58.2661 12.7103 58.0987 13.4716 57.7497 13.9745C57.4148 14.4775 56.9124 14.7358 56.2564 14.7358C55.8796 14.7358 55.5446 14.6678 55.2376 14.5455C54.9306 14.4231 54.6654 14.2192 54.4421 13.9473C54.2188 13.6755 54.0513 13.322 53.9257 12.9006C53.8001 12.4656 53.7303 11.949 53.7164 11.3509C53.7024 11.079 53.7024 10.8207 53.6884 10.5489C53.6745 10.2906 53.6187 10.0323 53.521 9.80121C53.4791 9.70605 53.4233 9.63808 53.3535 9.57011C53.2837 9.51573 53.2139 9.46136 53.1302 9.43417C53.0464 9.39339 52.9767 9.37979 52.8929 9.3662C52.8092 9.35261 52.7394 9.35261 52.6836 9.35261H52.3207V11.4461H53.3395V14.5183H48.4688V11.4461H49.6969V5.27444H48.4688V2.21582H54.456C54.8049 2.21582 55.1539 2.28379 55.4749 2.41973C55.8098 2.55567 56.0889 2.75957 56.3402 3.04504C56.5914 3.33052 56.7868 3.68396 56.9403 4.11896C57.0938 4.55397 57.1636 5.07053 57.1636 5.66866C57.1636 6.19882 57.0938 6.64742 56.9682 7.02805C56.8426 7.40868 56.6611 7.72134 56.4378 7.96603C56.2145 8.21072 55.9633 8.38744 55.6842 8.50979C55.4051 8.63213 55.112 8.68651 54.8049 8.7001C55.0841 8.78167 55.3213 8.89042 55.5307 9.01276C55.74 9.13511 55.9633 9.35261 56.1866 9.62449C56.3541 9.84199 56.4797 10.0867 56.5495 10.3586C56.6193 10.6304 56.6751 10.8887 56.717 11.1334C56.7449 11.3781 56.7728 11.5956 56.7868 11.7723C56.8007 11.949 56.8286 12.0578 56.8565 12.0986C56.9124 12.1665 56.9682 12.2073 57.038 12.2073C57.1217 12.2073 57.1915 12.1529 57.2334 12.0442C57.2752 11.9354 57.3171 11.8131 57.3311 11.6636C57.345 11.514 57.359 11.3645 57.359 11.215C57.359 11.0654 57.359 10.9431 57.359 10.8615H58.1824C58.2522 11.147 58.2661 11.4189 58.2661 11.7043ZM54.4142 6.38914C54.4142 6.0493 54.3444 5.77742 54.1909 5.57351C54.0513 5.3696 53.8559 5.26084 53.6326 5.26084H52.3068V7.53102H53.5628C53.814 7.53102 54.0094 7.43587 54.163 7.25915C54.3304 7.06883 54.4142 6.78337 54.4142 6.38914Z" fill="white"/>
  <path d="M63.8502 14.5051V11.4465H64.883C64.8271 11.2154 64.7713 10.9707 64.7155 10.726C64.6597 10.4813 64.6039 10.2502 64.548 10.0055H62.7337C62.6918 10.2366 62.636 10.4813 62.5802 10.726C62.5243 10.9707 62.4825 11.2018 62.4406 11.4465H63.4176V14.5051H59.5098V11.4465H60.2634C60.6263 9.89677 61.0031 8.36067 61.366 6.83815C61.7288 5.30204 62.1057 3.76593 62.4546 2.20264H65.4273C65.8181 3.75234 66.1949 5.30204 66.5577 6.83815C66.9346 8.38785 67.3253 9.92396 67.758 11.4465H68.7768V14.5051H63.8502ZM63.6269 5.8322C63.5152 6.29439 63.4176 6.77018 63.3199 7.23237C63.2222 7.69456 63.1245 8.15676 63.0128 8.60536H64.241L63.6269 5.8322Z" fill="white"/>
  <path d="M79.5787 11.2018C79.5787 11.8679 79.481 12.4116 79.2856 12.8466C79.0903 13.2681 78.839 13.6079 78.532 13.8526C78.225 14.0973 77.876 14.274 77.5132 14.3692C77.1364 14.4643 76.7735 14.5187 76.4246 14.5187H70.2559V11.4601H71.484V5.26126H70.2559V2.20264H76.5083C76.8293 2.20264 77.1503 2.27061 77.4853 2.39295C77.8063 2.5153 78.1133 2.70561 78.3785 2.96389C78.6437 3.22218 78.867 3.54843 79.0344 3.95625C79.2019 4.36406 79.2856 4.85344 79.2856 5.42438C79.2856 5.81861 79.2438 6.17205 79.1461 6.48471C79.0484 6.79736 78.9228 7.06925 78.7693 7.28675C78.6018 7.51784 78.4203 7.70815 78.211 7.84409C78.0017 7.99363 77.7784 8.10238 77.5411 8.18394C77.4992 8.19753 77.4574 8.21114 77.4294 8.22473C77.3876 8.23832 77.3457 8.25191 77.3178 8.2791C77.3597 8.30629 77.3876 8.31988 77.4294 8.31988C77.4713 8.31988 77.4992 8.31988 77.5411 8.33348C77.8063 8.38785 78.0714 8.48301 78.3227 8.60536C78.5739 8.7277 78.7972 8.90442 78.9786 9.13551C79.174 9.36661 79.3275 9.65209 79.4392 9.99193C79.5229 10.3182 79.5787 10.726 79.5787 11.2018ZM76.3129 6.40315C76.3129 6.02252 76.2432 5.75064 76.0896 5.54673C75.9361 5.34282 75.7407 5.26126 75.5035 5.26126H74.0799V7.53144H75.5035C75.7407 7.53144 75.9222 7.43628 76.0896 7.24597C76.2432 7.05565 76.3129 6.78377 76.3129 6.40315ZM76.3548 10.3318C76.3548 10.1007 76.3269 9.91037 76.2711 9.76084C76.2152 9.6113 76.1455 9.50255 76.0478 9.42099C75.9501 9.33943 75.8524 9.28505 75.7268 9.25786C75.6012 9.23067 75.4895 9.21708 75.3639 9.21708H74.0799V11.4873H75.3779C75.6291 11.4873 75.8524 11.4057 76.0478 11.2562C76.2571 11.0794 76.3548 10.7804 76.3548 10.3318Z" fill="white"/>
  <path d="M89.6543 8.46922C89.6543 9.39361 89.5427 10.2364 89.3194 11.0113C89.0961 11.7725 88.789 12.4386 88.4122 12.996C88.0214 13.5533 87.5748 13.9883 87.0584 14.2874C86.542 14.5865 85.9838 14.7496 85.3976 14.7496C84.7975 14.7496 84.2392 14.6001 83.7228 14.2874C83.2065 13.9747 82.7599 13.5533 82.3691 12.996C81.9783 12.4522 81.6852 11.7861 81.4619 11.0113C81.2386 10.2364 81.127 9.38001 81.127 8.45562C81.127 7.50405 81.2386 6.63405 81.4479 5.84561C81.6573 5.04357 81.9504 4.36387 82.3412 3.80652C82.718 3.23558 83.1646 2.80057 83.6949 2.47432C84.2113 2.14807 84.7835 1.99854 85.4116 1.99854C86.0396 1.99854 86.6118 2.16166 87.1422 2.47432C87.6585 2.80057 88.1191 3.24917 88.4959 3.82011C88.8727 4.39106 89.1658 5.08434 89.3752 5.87279C89.5566 6.63404 89.6543 7.51765 89.6543 8.46922ZM86.7095 8.31969C86.7095 7.97984 86.6956 7.61281 86.6676 7.21858C86.6397 6.82436 86.5699 6.45733 86.4722 6.11748C86.3746 5.77764 86.235 5.49216 86.0675 5.26106C85.8861 5.02997 85.6628 4.92122 85.3697 4.92122C85.1045 4.92122 84.8812 5.04357 84.7137 5.27466C84.5463 5.50576 84.4207 5.80482 84.323 6.14466C84.2253 6.48451 84.1555 6.86515 84.1276 7.24577C84.0997 7.64 84.0717 7.99344 84.0717 8.3061C84.0717 8.63235 84.0857 8.99938 84.1276 9.4072C84.1555 9.81501 84.2253 10.1956 84.323 10.5491C84.4207 10.9025 84.5602 11.2016 84.7277 11.4463C84.8952 11.691 85.1185 11.7997 85.3976 11.7997C85.6628 11.7997 85.8861 11.6774 86.0536 11.4327C86.221 11.188 86.3606 10.8889 86.4443 10.5355C86.542 10.1821 86.6118 9.80142 86.6397 9.4072C86.6956 8.98579 86.7095 8.63234 86.7095 8.31969Z" fill="white"/>
  <path d="M96.4385 14.505V11.4464H97.1363L95.6569 9.0131L94.9731 9.62482V11.4464H95.9081V14.505H91.1211V11.4464H92.3493V5.24759H91.1211V2.18896H95.9081V5.24759H94.9731V7.70808L97.8202 5.24759H96.4245V2.18896H101.156V5.24759H99.9834L97.6527 7.32745L100.165 11.4464H101.198V14.505H96.4385Z" fill="white"/>
  <path d="M109.934 7.78931V5.1521H108.581V11.4461C108.79 11.4461 108.999 11.4461 109.195 11.4325C109.404 11.4325 109.599 11.4325 109.809 11.4461V14.5047H104.729V11.4461H105.957V5.1521H104.603V7.78931H102.523V2.21582H112V7.78931H109.934Z" fill="white"/>
  <path d="M29.1392 17.6318C29.3206 17.6318 29.6416 17.6454 29.8789 17.8493C29.9766 17.9308 30.172 18.1483 30.172 18.5697C30.172 18.7465 30.144 19.0455 29.851 19.2494C30.2976 19.3718 30.465 19.7932 30.465 20.1194C30.465 20.4457 30.3115 20.7176 30.1301 20.8671C29.8789 21.0846 29.5718 21.0982 29.3485 21.0982H28.5391V17.6182H29.1392V17.6318ZM28.9159 19.1679H29.1811C29.3764 19.1679 29.823 19.1271 29.823 18.5833C29.823 18.0124 29.2927 17.9988 29.195 17.9988H28.9159V19.1679ZM28.9159 20.7448H29.3346C29.5439 20.7448 29.7533 20.7312 29.9068 20.5952C30.0324 20.5001 30.1161 20.3234 30.1161 20.1194C30.1161 19.8476 29.9626 19.6844 29.837 19.6029C29.7114 19.5349 29.5439 19.4941 29.2927 19.4941H28.9298V20.7448H28.9159Z" fill="white"/>
  <path d="M33.3957 20.1327H32.014L31.6232 21.1114H31.2324L32.7258 17.4683L34.1772 21.1114H33.7725L33.3957 20.1327ZM33.2561 19.7656L32.7118 18.379L32.1535 19.7656H33.2561Z" fill="white"/>
  <path d="M35.127 21.1116V17.4956L37.6531 20.3367V17.6451H38.0159V21.2747L35.4759 18.4336V21.1116H35.127Z" fill="white"/>
  <path d="M39.691 19.1271L41.0727 17.6318H41.5611L40.0399 19.2494L41.603 21.0982H41.1145L39.7887 19.5077L39.691 19.6029V21.0982H39.3281V17.6182H39.691V19.1271Z" fill="white"/>
  <path d="M44.0176 19.3715C44.0176 18.3384 44.7712 17.5771 45.7063 17.5771C46.6414 17.5771 47.395 18.3384 47.395 19.3715C47.395 20.4047 46.6414 21.1659 45.7063 21.1659C44.7712 21.1659 44.0176 20.4047 44.0176 19.3715ZM44.3804 19.3715C44.3804 20.1736 44.9666 20.7989 45.6923 20.7989C46.4181 20.7989 47.0042 20.16 47.0042 19.3715C47.0042 18.5695 46.4181 17.9442 45.6923 17.9442C44.9666 17.9442 44.3804 18.5831 44.3804 19.3715Z" fill="white"/>
  <path d="M48.8883 17.6313V20.7443H49.7815V21.1114H48.5254V17.6313H48.8883Z" fill="white"/>
  <path d="M50.6328 21.1118L51.1771 17.4414L52.4192 20.3777L53.6893 17.4414L54.1917 21.1118H53.8288L53.5218 18.692L52.4192 21.2613L51.3306 18.692L51.0096 21.1118H50.6328Z" fill="white"/>
  <path d="M57.2045 20.1327H55.8229L55.4321 21.1114H55.0273L56.5207 17.4683L57.9721 21.1114H57.5674L57.2045 20.1327ZM57.065 19.7656L56.5207 18.379L55.9624 19.7656H57.065Z" fill="white"/>
  <path d="M59.3126 19.6161L58.252 17.6313H58.6706L59.4941 19.1811L60.3315 17.6313H60.7501L59.6755 19.6161V21.1114H59.3126V19.6161Z" fill="white"/>
  <path d="M63.1518 20.1327H61.7701L61.3793 21.1114H60.9746L62.4679 17.4683L63.9194 21.1114H63.5147L63.1518 20.1327ZM63.0122 19.7656L62.4679 18.379L61.9097 19.7656H63.0122Z" fill="white"/>
  <path d="M64.8672 21.1116V17.4956L67.3933 20.3367V17.6451H67.7562V21.2747L65.2301 18.4336V21.1116H64.8672Z" fill="white"/>
  <path d="M71.0504 19.1267L72.432 17.6313H72.9205L71.3993 19.249L72.9624 21.0978H72.4739L71.1481 19.5209L71.0504 19.6161V21.1114H70.6875V17.6313H71.0504V19.1267Z" fill="white"/>
  <path d="M74.4558 17.6313C74.6791 17.6313 75.0001 17.6449 75.2374 17.8217C75.4328 17.9576 75.5863 18.2295 75.5863 18.5965C75.5863 19.1267 75.2653 19.5209 74.7768 19.5617L75.8096 21.1114H75.377L74.3861 19.5889H74.2884V21.1114H73.9395V17.6313H74.4558ZM74.3023 19.249H74.5256C74.9722 19.249 75.2374 19.0179 75.2374 18.6101C75.2374 18.4198 75.1816 18.2295 74.9862 18.0935C74.8466 17.9984 74.6791 17.9984 74.5256 17.9984H74.3023V19.249Z" fill="white"/>
  <path d="M78.5439 17.9984H77.2181V19.0315H78.502V19.3986H77.2181V20.7443H78.5439V21.1114H76.8691V17.6313H78.5439V17.9984Z" fill="white"/>
  <path d="M79.6895 17.6313H80.3454C80.6664 17.6313 81.127 17.6721 81.5457 18.0392C81.8387 18.311 82.1039 18.7461 82.1039 19.3714C82.1039 20.1054 81.769 20.4861 81.5317 20.7036C81.2386 20.9754 80.9316 21.1114 80.3454 21.1114H79.6895V17.6313ZM80.0384 20.7443H80.3594C80.6106 20.7443 80.9734 20.7172 81.2805 20.4317C81.5177 20.2142 81.7131 19.8743 81.7131 19.3714C81.7131 18.5421 81.1688 17.9984 80.3454 17.9984H80.0244V20.7443H80.0384Z" fill="white"/>
  <path d="M83.4156 16.7344C83.5691 16.7344 83.6807 16.8567 83.6807 17.0198C83.6807 17.183 83.5691 17.3053 83.4156 17.3053C83.262 17.3053 83.1504 17.183 83.1504 17.0198C83.1504 16.8567 83.262 16.7344 83.4156 16.7344ZM83.597 17.6316V21.1116H83.2341V17.6316H83.597Z" fill="white"/>
  <path d="M85.7186 17.9984V21.1114H85.3558V17.9984H84.5742V17.6313H86.5002V17.9984H85.7186Z" fill="white"/>
  <path d="M89.8908 17.9984V21.1114H89.5279V17.9984H88.7324V17.6313H90.6584V17.9984H89.8908Z" fill="white"/>
  <path d="M91.4264 18.3385C91.5241 18.2025 91.6497 18.053 91.8032 17.9307C92.1242 17.6724 92.4871 17.5908 92.7941 17.5908C93.7571 17.5908 94.4828 18.3793 94.4828 19.3852C94.4828 20.3912 93.7711 21.1796 92.8081 21.1796C92.2359 21.1796 91.8311 20.8805 91.6078 20.5543C91.3985 20.2552 91.3008 19.8338 91.3008 19.4532V19.3716H94.12C94.12 18.5968 93.5757 17.9443 92.7941 17.9443C92.4033 17.9443 92.1661 18.0938 92.0126 18.2297C91.9009 18.3249 91.8032 18.4472 91.7055 18.5832L91.4264 18.3385ZM91.6636 19.7251C91.6776 19.9426 91.7334 20.1057 91.7893 20.2144C91.9707 20.5679 92.3475 20.799 92.7802 20.799C93.4082 20.799 93.9385 20.3504 94.0781 19.7251H91.6636Z" fill="white"/>
  <path d="M97.0779 18.3247C97.0361 18.2295 96.9663 18.1207 96.8825 18.0664C96.8128 18.012 96.7011 17.944 96.5197 17.944C96.1987 17.944 95.9754 18.1615 95.9754 18.4742C95.9754 18.6101 96.0033 18.6917 96.101 18.7733C96.1987 18.882 96.3243 18.9364 96.4359 18.9908L96.743 19.1403C96.9384 19.2354 97.1058 19.317 97.2454 19.4665C97.4129 19.6433 97.4827 19.8472 97.4827 20.0919C97.4827 20.7308 97.0361 21.1658 96.4638 21.1658C96.2545 21.1658 95.9893 21.125 95.766 20.8803C95.6125 20.7172 95.5148 20.4725 95.459 20.2686L95.8079 20.1598C95.8358 20.3366 95.9056 20.4997 96.0033 20.6084C96.1428 20.758 96.3103 20.7987 96.4638 20.7987C96.9105 20.7987 97.1198 20.4589 97.1198 20.1055C97.1198 19.9559 97.0779 19.82 96.9663 19.6976C96.8686 19.6025 96.743 19.5481 96.5755 19.4529L96.2824 19.3034C96.1568 19.2354 95.9893 19.1675 95.8498 19.0179C95.7102 18.8684 95.6265 18.7053 95.6265 18.447C95.6265 17.9168 96.0033 17.5498 96.5336 17.5498C96.729 17.5498 96.8965 17.5906 97.05 17.7129C97.1756 17.8081 97.2873 17.944 97.371 18.0936L97.0779 18.3247ZM96.7848 21.5328L96.2824 22.1989L96.0452 22.063L96.4499 21.3697L96.7848 21.5328Z" fill="white"/>
  <path d="M98.9918 19.1267L100.373 17.6313H100.862L99.3407 19.2626L100.904 21.1114H100.415L99.0895 19.5209L98.9918 19.6161V21.1114H98.6289V17.6313H98.9918V19.1267Z" fill="white"/>
  <path d="M102.046 16.7344C102.2 16.7344 102.312 16.8567 102.312 17.0198C102.312 17.183 102.2 17.3053 102.046 17.3053C101.893 17.3053 101.781 17.183 101.781 17.0198C101.781 16.8567 101.893 16.7344 102.046 16.7344ZM102.228 17.6316V21.1116H101.865V17.6316H102.228Z" fill="white"/>
  <path d="M103.904 17.6313V20.7443H104.797V21.1114H103.541V17.6313H103.904Z" fill="white"/>
  <path d="M107.56 20.1327H106.178L105.788 21.1114H105.383L106.876 17.4683L108.328 21.1114H107.923L107.56 20.1327ZM107.42 19.7656L106.876 18.379L106.318 19.7656H107.42Z" fill="white"/>
  <path d="M109.863 17.9984V21.1114H109.5V17.9984H108.719V17.6313H110.645V17.9984H109.863Z" fill="white"/>
  <path d="M111.97 17.6313V21.1114H111.621V17.6313H111.97Z" fill="white"/>
</svg>