<svg xmlns="http://www.w3.org/2000/svg" width="200" height="44" viewBox="0 0 200 44" fill="none">
  <path d="M21.7321 43.3151C9.61994 43.2902 0 33.6453 0 21.5581C0.0249221 9.59545 9.76947 -0.0743357 21.7321 0.000430663C33.7695 0.0502749 43.4642 9.79483 43.4143 21.7574C43.3396 33.6702 33.6199 43.34 21.7321 43.3151ZM41.8941 21.7574C41.9938 10.7668 32.947 1.57052 21.9564 1.47083C10.7664 1.37115 1.57009 10.2933 1.47041 21.3836C1.37072 32.449 10.2928 41.745 21.109 41.8447C32.6978 41.9444 41.8193 33.1219 41.8941 21.7574Z" fill="#005BAA"/>
  <path d="M17.2207 33.0971C17.4948 32.9475 17.5696 32.8728 17.6444 32.8478C19.7129 32.5488 20.0369 32.1999 20.0369 30.1064C20.0618 27.2404 20.0618 24.3992 20.0369 21.5332C20.0369 20.9101 20.2114 20.5612 20.8095 20.312C21.4076 20.0628 21.931 19.6391 22.6039 19.2154C22.6039 20.1625 22.6288 21.1095 22.6039 22.0316C22.579 22.6796 22.8282 23.0036 23.4762 22.9787C24.8967 22.9288 26.3173 22.9538 27.7378 22.7793C29.3329 22.5799 30.255 21.4834 30.554 19.9382C30.878 18.2684 30.2799 16.9226 28.8593 16.0005C27.5883 15.1531 26.1428 15.0036 24.6475 15.1033C24.0494 15.1531 23.8251 14.9787 24.0743 14.1562C25.8936 14.3556 27.7378 14.4055 29.5073 14.7544C31.8998 15.2528 33.3453 17.0721 33.3952 19.1905C33.4201 20.96 32.5976 22.2061 31.0774 23.0285C30.8282 23.1531 30.579 23.2777 30.3297 23.4273C30.3048 23.4273 30.3048 23.4771 30.2799 23.6017C30.5042 23.6765 30.7036 23.8011 30.9279 23.8509C33.0462 24.5238 34.2924 26.0192 34.3173 27.9382C34.3422 29.9569 32.9715 31.9506 30.9777 32.5737C30.0057 32.8728 28.9839 33.0971 27.9871 33.122C24.5976 33.1967 21.1833 33.1718 17.7939 33.1967C17.6693 33.1967 17.5447 33.1718 17.2207 33.0971ZM25.6444 32.3992C26.392 32.3245 27.1895 32.2995 27.9621 32.1251C29.7814 31.7014 31.0276 30.3058 31.1522 28.6609C31.3017 26.7918 30.3297 25.2466 28.4855 24.4989C26.7908 23.8011 25.0213 23.8011 23.2519 24.0005C23.0026 24.0254 22.6288 24.4491 22.6288 24.6983C22.579 26.9164 22.579 29.1344 22.6288 31.3525C22.6288 31.6017 22.9777 32.0254 23.2269 32.0752C23.9995 32.2497 24.797 32.2996 25.6444 32.3992Z" fill="#005BAA"/>
  <path d="M17.0209 28.9351C14.429 28.9351 11.8371 28.9351 9.24524 28.9351C9.24524 28.8852 9.22031 28.8354 9.22031 28.7606C9.41969 28.7108 9.59415 28.6609 9.79352 28.6609C11.1892 28.5363 11.7873 28.0379 11.8122 26.6173C11.8621 21.9569 11.8621 17.2715 11.8122 12.6111C11.7873 11.041 11.239 10.6173 9.61907 10.4927C9.49446 10.4927 9.34492 10.4179 9.0957 10.3681C9.27016 10.2435 9.34493 10.1687 9.41969 10.1687C12.5848 10.2435 15.7748 10.1687 18.9399 10.4179C20.9586 10.5675 22.5536 11.7637 23.2016 13.7575C23.7998 15.5269 23.5505 17.2715 22.2795 18.7668C21.3823 19.8136 20.211 20.3618 18.8652 20.4117C17.4446 20.4865 16.0241 20.4366 14.429 20.4366C14.429 20.7357 14.429 21.2092 14.429 21.7076C14.429 23.2528 14.4041 24.8229 14.454 26.3681C14.5038 28.1126 14.9275 28.5363 16.6471 28.6609C16.7966 28.6609 16.9212 28.7357 17.0708 28.7606C17.0209 28.8104 17.0209 28.8603 17.0209 28.9351ZM16.5225 19.7139C17.8434 19.7886 18.8652 19.2154 19.6378 18.1687C20.6845 16.7481 20.7094 14.4553 19.6627 12.8603C18.6658 11.3151 17.1705 10.9662 15.4259 11.1656C14.5287 11.2653 14.3543 11.6142 14.3792 12.4366C14.454 14.1562 14.4041 15.8759 14.4041 17.5955C14.3792 19.6889 14.3792 19.6889 16.5225 19.7139Z" fill="#005BAA"/>
  <path d="M19.9371 15.3775C19.0897 15.0784 18.2922 14.7544 17.4199 14.4304C18.1925 14.4304 18.9152 14.4304 19.7626 14.4304C19.7875 14.7544 19.8872 15.1282 19.9371 15.3775Z" fill="#005BAA"/>
  <path d="M66.6912 10.6173C66.6912 11.7886 66.5417 12.8104 66.2676 13.6328C65.9934 14.4553 65.6196 15.1282 65.1461 15.6515C64.6726 16.1749 64.1492 16.5487 63.5261 16.798C62.928 17.0223 62.28 17.1469 61.6071 17.1469H57.7691V21.0098H59.9623V26.6173H50.8906V21.0098H53.0838V9.64531H50.8906V4.03784H61.8065C62.4545 4.03784 63.0526 4.18737 63.6508 4.46151C64.224 4.73566 64.7473 5.15933 65.1959 5.70762C65.6445 6.25591 65.9934 6.92881 66.2676 7.75124C66.5666 8.57367 66.6912 9.52071 66.6912 10.6173ZM61.7816 11.7139C61.7816 11.0908 61.6321 10.5924 61.3579 10.2185C61.0838 9.8447 60.7598 9.64531 60.361 9.64531H57.7691V13.8073H60.2115C60.6601 13.8073 61.009 13.6578 61.3081 13.3338C61.6321 12.9849 61.7816 12.4615 61.7816 11.7139Z" fill="#005BAA"/>
  <path d="M75.1648 26.5924V20.9849H77.0091C76.9094 20.5612 76.8097 20.1126 76.71 19.664C76.6103 19.2154 76.5106 18.7917 76.4109 18.3431H73.1711C73.0963 18.7668 72.9966 19.2154 72.8969 19.664C72.7972 20.1126 72.7225 20.5363 72.6477 20.9849H74.3923V26.5924H67.4141V20.9849H68.7599C69.4078 18.1438 70.0807 15.3276 70.7287 12.5363C71.3767 9.72009 72.0496 6.90389 72.6726 4.03784H77.981C78.6789 6.87896 79.3518 9.72009 79.9997 12.5363C80.6726 15.3774 81.3704 18.1936 82.143 20.9849H83.9623V26.5924H75.1648ZM74.7661 10.692C74.5667 11.5394 74.3923 12.4117 74.2178 13.259C74.0433 14.1064 73.8689 14.9537 73.6695 15.7762H75.8627L74.7661 10.692Z" fill="#005BAA"/>
  <path d="M104.05 21.4584C104.05 23.3026 103.751 24.6983 103.128 25.6204C102.53 26.5425 101.633 27.016 100.461 27.016C99.7883 27.016 99.1902 26.8914 98.6419 26.6671C98.0936 26.4428 97.6201 26.069 97.2213 25.5705C96.8226 25.0721 96.5235 24.4241 96.2992 23.6515C96.0749 22.854 95.9503 21.907 95.9254 20.8104C95.9005 20.312 95.9005 19.8384 95.8756 19.34C95.8506 18.8665 95.751 18.393 95.5765 17.9693C95.5017 17.7948 95.402 17.6702 95.2774 17.5456C95.1528 17.4459 95.0282 17.3462 94.8787 17.2964C94.7291 17.2216 94.6045 17.1967 94.455 17.1718C94.3055 17.1468 94.1809 17.1469 94.0812 17.1469H93.4332V20.9849H95.2525V26.6173H86.5547V20.9849H88.7478V9.67022H86.5547V4.06274H97.2463C97.8693 4.06274 98.4924 4.18735 99.0656 4.43658C99.6637 4.6858 100.162 5.05962 100.611 5.58299C101.059 6.10635 101.408 6.75433 101.682 7.55184C101.957 8.34935 102.081 9.29638 102.081 10.393C102.081 11.3649 101.957 12.1873 101.732 12.8852C101.508 13.583 101.184 14.1562 100.785 14.6048C100.386 15.0534 99.9379 15.3774 99.4394 15.6017C98.941 15.826 98.4176 15.9257 97.8693 15.9506C98.3678 16.1001 98.7914 16.2995 99.1653 16.5238C99.5391 16.7481 99.9379 17.1469 100.337 17.6453C100.636 18.0441 100.86 18.4926 100.985 18.9911C101.109 19.4895 101.209 19.963 101.284 20.4116C101.334 20.8602 101.383 21.259 101.408 21.583C101.433 21.907 101.483 22.1064 101.533 22.1811C101.633 22.3057 101.732 22.3805 101.857 22.3805C102.006 22.3805 102.131 22.2808 102.206 22.0814C102.281 21.8821 102.355 21.6578 102.38 21.3836C102.405 21.1095 102.43 20.8353 102.43 20.5612C102.43 20.287 102.43 20.0627 102.43 19.9132H103.9C104.025 20.4366 104.05 20.935 104.05 21.4584ZM97.1715 11.7138C97.1715 11.0908 97.0469 10.5923 96.7728 10.2185C96.5235 9.84468 96.1746 9.64529 95.7759 9.64529H93.4083V13.8073H95.6513C96.0999 13.8073 96.4488 13.6328 96.7229 13.3088C97.022 12.9599 97.1715 12.4366 97.1715 11.7138Z" fill="#005BAA"/>
  <path d="M114.018 26.5924V20.9849H115.863C115.763 20.5612 115.663 20.1126 115.564 19.664C115.464 19.2154 115.364 18.7917 115.264 18.3431H112.025C111.95 18.7668 111.85 19.2154 111.75 19.664C111.651 20.1126 111.576 20.5363 111.501 20.9849H113.246V26.5924H106.268V20.9849H107.613C108.261 18.1438 108.934 15.3276 109.582 12.5363C110.23 9.72009 110.903 6.90389 111.526 4.03784H116.835C117.532 6.87896 118.205 9.72009 118.853 12.5363C119.526 15.3774 120.224 18.1936 120.997 20.9849H122.816V26.5924H114.018ZM113.62 10.692C113.42 11.5394 113.246 12.4117 113.071 13.259C112.897 14.1064 112.722 14.9537 112.523 15.7762H114.716L113.62 10.692Z" fill="#005BAA"/>
  <path d="M142.105 20.5363C142.105 21.7575 141.931 22.7544 141.582 23.5519C141.233 24.3244 140.784 24.9475 140.236 25.3961C139.688 25.8447 139.065 26.1687 138.417 26.3431C137.744 26.5176 137.096 26.6173 136.473 26.6173H125.457V21.0098H127.65V9.64531H125.457V4.03784H136.622C137.195 4.03784 137.769 4.16245 138.367 4.38675C138.94 4.61105 139.488 4.95996 139.962 5.43348C140.435 5.907 140.834 6.50513 141.133 7.25279C141.432 8.00046 141.582 8.89765 141.582 9.94438C141.582 10.6671 141.507 11.3151 141.332 11.8883C141.158 12.4615 140.934 12.96 140.66 13.3587C140.36 13.7824 140.036 14.1313 139.663 14.3805C139.289 14.6547 138.89 14.854 138.466 15.0036C138.392 15.0285 138.317 15.0534 138.267 15.0783C138.192 15.1033 138.117 15.1282 138.068 15.178C138.142 15.2279 138.192 15.2528 138.267 15.2528C138.342 15.2528 138.392 15.2528 138.466 15.2777C138.94 15.3774 139.413 15.5519 139.862 15.7762C140.311 16.0005 140.709 16.3244 141.033 16.7481C141.382 17.1718 141.656 17.6952 141.856 18.3182C142.005 18.9163 142.105 19.664 142.105 20.5363ZM136.273 11.7388C136.273 11.041 136.149 10.5425 135.874 10.1687C135.6 9.79485 135.251 9.64531 134.828 9.64531H132.286V13.8073H134.828C135.251 13.8073 135.575 13.6329 135.874 13.2839C136.149 12.935 136.273 12.4366 136.273 11.7388ZM136.348 18.9413C136.348 18.5176 136.298 18.1687 136.198 17.8945C136.099 17.6204 135.974 17.421 135.8 17.2715C135.625 17.122 135.451 17.0223 135.227 16.9724C135.002 16.9226 134.803 16.8977 134.579 16.8977H132.286V21.0597H134.603C135.052 21.0597 135.451 20.9101 135.8 20.636C136.174 20.312 136.348 19.7637 136.348 18.9413Z" fill="#005BAA"/>
  <path d="M160.099 15.527C160.099 17.2217 159.899 18.7669 159.5 20.1874C159.102 21.5831 158.553 22.8042 157.88 23.8261C157.183 24.8479 156.385 25.6454 155.463 26.1937C154.541 26.7419 153.544 27.041 152.497 27.041C151.426 27.041 150.429 26.7669 149.507 26.1937C148.584 25.6204 147.787 24.8479 147.089 23.8261C146.391 22.8292 145.868 21.608 145.469 20.1874C145.07 18.7669 144.871 17.1968 144.871 15.5021C144.871 13.7575 145.07 12.1625 145.444 10.717C145.818 9.24662 146.342 8.00051 147.039 6.9787C147.712 5.93197 148.51 5.13447 149.457 4.53634C150.379 3.93821 151.401 3.66406 152.522 3.66406C153.644 3.66406 154.665 3.96313 155.613 4.53634C156.535 5.13447 157.357 5.9569 158.03 7.00362C158.703 8.05035 159.226 9.32138 159.6 10.7669C159.924 12.1625 160.099 13.7824 160.099 15.527ZM154.84 15.2528C154.84 14.6298 154.815 13.9569 154.765 13.2342C154.715 12.5114 154.591 11.8385 154.416 11.2155C154.242 10.5924 153.993 10.069 153.694 9.64536C153.37 9.22169 152.971 9.02232 152.447 9.02232C151.974 9.02232 151.575 9.24662 151.276 9.67029C150.977 10.094 150.753 10.6422 150.578 11.2653C150.404 11.8884 150.279 12.5862 150.229 13.284C150.18 14.0067 150.13 14.6547 150.13 15.2279C150.13 15.8261 150.155 16.4989 150.229 17.2466C150.279 17.9943 150.404 18.6921 150.578 19.3401C150.753 19.988 151.002 20.5363 151.301 20.9849C151.6 21.4335 151.999 21.6329 152.497 21.6329C152.971 21.6329 153.37 21.4086 153.669 20.96C153.968 20.5114 154.217 19.9631 154.366 19.3152C154.541 18.6672 154.665 17.9693 154.715 17.2466C154.815 16.474 154.84 15.826 154.84 15.2528Z" fill="#005BAA"/>
  <path d="M172.212 26.5924V20.9849H173.458L170.816 16.5238L169.595 17.6453V20.9849H171.265V26.5924H162.717V20.9849H164.91V9.62042H162.717V4.01294H171.265V9.62042H169.595V14.1313L174.679 9.62042H172.187V4.01294H180.636V9.62042H178.542L174.38 13.4335L178.866 20.9849H180.711V26.5924H172.212Z" fill="#005BAA"/>
  <path d="M196.312 14.2808V9.44592H193.894V20.9849C194.268 20.9849 194.642 20.9849 194.991 20.9599C195.365 20.9599 195.714 20.9599 196.087 20.9849V26.5923H187.016V20.9849H189.209V9.44592H186.792V14.2808H183.078V4.06274H200V14.2808H196.312Z" fill="#005BAA"/>
  <path d="M52.0365 32.3245C52.3605 32.3245 52.9337 32.3494 53.3574 32.7232C53.5318 32.8728 53.8807 33.2715 53.8807 34.0441C53.8807 34.3681 53.8309 34.9164 53.3075 35.2902C54.105 35.5145 54.4041 36.2871 54.4041 36.8852C54.4041 37.4834 54.13 37.9818 53.806 38.256C53.3574 38.6547 52.8091 38.6796 52.4103 38.6796H50.9648V32.2996H52.0365V32.3245ZM51.6377 35.1407H52.1113C52.4602 35.1407 53.2577 35.0659 53.2577 34.069C53.2577 33.0223 52.3106 32.9974 52.1362 32.9974H51.6377V35.1407ZM51.6377 38.0316H52.3854C52.7592 38.0316 53.1331 38.0067 53.4072 37.7575C53.6315 37.5831 53.781 37.2591 53.781 36.8852C53.781 36.3868 53.5069 36.0877 53.2826 35.9382C53.0583 35.8136 52.7592 35.7388 52.3106 35.7388H51.6627V38.0316H51.6377Z" fill="#414042"/>
  <path d="M59.6383 36.9104H57.171L56.4732 38.7048H55.7754L58.4421 32.0256L61.034 38.7048H60.3112L59.6383 36.9104ZM59.3891 36.2375L58.4171 33.6954L57.4203 36.2375H59.3891Z" fill="#414042"/>
  <path d="M62.7285 38.7047V32.0754L67.2394 37.2842V32.3496H67.8874V39.0038L63.3516 33.7951V38.7047H62.7285Z" fill="#414042"/>
  <path d="M70.8784 35.0659L73.3457 32.3245H74.218L71.5015 35.2902L74.2928 38.6796H73.4205L71.0529 35.7637L70.8784 35.9382V38.6796H70.2305V32.2996H70.8784V35.0659Z" fill="#414042"/>
  <path d="M78.6035 35.5146C78.6035 33.6205 79.9493 32.2249 81.6191 32.2249C83.2889 32.2249 84.6347 33.6205 84.6347 35.5146C84.6347 37.4087 83.2889 38.8043 81.6191 38.8043C79.9493 38.8043 78.6035 37.4087 78.6035 35.5146ZM79.2515 35.5146C79.2515 36.985 80.2982 38.1314 81.5942 38.1314C82.8901 38.1314 83.9368 36.9601 83.9368 35.5146C83.9368 34.0442 82.8901 32.8978 81.5942 32.8978C80.2982 32.8978 79.2515 34.0691 79.2515 35.5146Z" fill="#414042"/>
  <path d="M87.3003 32.3245V38.0316H88.8953V38.7045H86.6523V32.3245H87.3003Z" fill="#414042"/>
  <path d="M90.416 38.7046L91.388 31.9756L93.606 37.3588L95.874 31.9756L96.7712 38.7046H96.1232L95.5749 34.2684L93.606 38.9787L91.6621 34.2684L91.0889 38.7046H90.416Z" fill="#414042"/>
  <path d="M102.155 36.9104H99.6881L98.9903 38.7048H98.2676L100.934 32.0256L103.526 38.7048H102.803L102.155 36.9104ZM101.906 36.2375L100.934 33.6954L99.9374 36.2375H101.906Z" fill="#414042"/>
  <path d="M105.918 35.9631L104.023 32.3245H104.771L106.242 35.1656L107.737 32.3245H108.484L106.565 35.9631V38.7045H105.918V35.9631Z" fill="#414042"/>
  <path d="M112.773 36.9104H110.305L109.608 38.7048H108.885L111.551 32.0256L114.143 38.7048H113.421L112.773 36.9104ZM112.523 36.2375L111.551 33.6954L110.555 36.2375H112.523Z" fill="#414042"/>
  <path d="M115.838 38.7047V32.0754L120.349 37.2842V32.3496H120.997V39.0038L116.486 33.7951V38.7047H115.838Z" fill="#414042"/>
  <path d="M126.878 35.0659L129.346 32.3245H130.218L127.501 35.2902L130.293 38.6796H129.42L127.053 35.7886L126.878 35.9631V38.7045H126.23V32.3245H126.878V35.0659Z" fill="#414042"/>
  <path d="M132.959 32.3245C133.358 32.3245 133.931 32.3494 134.355 32.6734C134.704 32.9226 134.978 33.421 134.978 34.0939C134.978 35.0659 134.405 35.7886 133.532 35.8634L135.377 38.7045H134.604L132.835 35.9133H132.66V38.7045H132.037V32.3245H132.959ZM132.685 35.2902H133.084C133.881 35.2902 134.355 34.8665 134.355 34.1189C134.355 33.7699 134.255 33.421 133.906 33.1718C133.657 32.9974 133.358 32.9974 133.084 32.9974H132.685V35.2902Z" fill="#414042"/>
  <path d="M140.26 32.9974H137.893V34.8915H140.185V35.5643H137.893V38.0316H140.26V38.7045H137.27V32.3245H140.26V32.9974Z" fill="#414042"/>
  <path d="M142.305 32.3245H143.476C144.049 32.3245 144.872 32.3992 145.619 33.0721C146.143 33.5706 146.616 34.3681 146.616 35.5145C146.616 36.8603 146.018 37.5581 145.594 37.9569C145.071 38.4553 144.523 38.7045 143.476 38.7045H142.305V32.3245ZM142.928 38.0316H143.501C143.95 38.0316 144.598 37.9818 145.146 37.4584C145.569 37.0597 145.918 36.4366 145.918 35.5145C145.918 33.9943 144.946 32.9974 143.476 32.9974H142.903V38.0316H142.928Z" fill="#414042"/>
  <path d="M148.958 30.6797C149.232 30.6797 149.431 30.904 149.431 31.203C149.431 31.5021 149.232 31.7264 148.958 31.7264C148.684 31.7264 148.484 31.5021 148.484 31.203C148.484 30.904 148.684 30.6797 148.958 30.6797ZM149.282 32.3245V38.7046H148.634V32.3245H149.282Z" fill="#414042"/>
  <path d="M153.071 32.9974V38.7045H152.423V32.9974H151.027V32.3245H154.467V32.9974H153.071Z" fill="#414042"/>
  <path d="M160.522 32.9974V38.7045H159.874V32.9974H158.453V32.3245H161.892V32.9974H160.522Z" fill="#414042"/>
  <path d="M163.263 33.6205C163.438 33.3713 163.662 33.0971 163.936 32.8728C164.509 32.3993 165.157 32.2498 165.706 32.2498C167.425 32.2498 168.721 33.6952 168.721 35.5395C168.721 37.3837 167.45 38.8292 165.731 38.8292C164.709 38.8292 163.986 38.2809 163.587 37.6828C163.214 37.1345 163.039 36.3619 163.039 35.6641V35.5146H168.073C168.073 34.094 167.101 32.8977 165.706 32.8977C165.008 32.8977 164.584 33.1719 164.31 33.4211C164.111 33.5956 163.936 33.8198 163.762 34.0691L163.263 33.6205ZM163.687 36.1625C163.712 36.5613 163.812 36.8603 163.911 37.0597C164.235 37.7077 164.908 38.1314 165.681 38.1314C166.802 38.1314 167.749 37.3089 167.999 36.1625H163.687Z" fill="#414042"/>
  <path d="M173.358 33.5956C173.283 33.4212 173.158 33.2218 173.009 33.1221C172.884 33.0224 172.685 32.8978 172.361 32.8978C171.788 32.8978 171.389 33.2965 171.389 33.8697C171.389 34.119 171.439 34.2685 171.613 34.418C171.788 34.6174 172.012 34.7171 172.211 34.8168L172.76 35.0909C173.109 35.2654 173.408 35.4149 173.657 35.6891C173.956 36.013 174.081 36.3869 174.081 36.8355C174.081 38.0068 173.283 38.8043 172.261 38.8043C171.887 38.8043 171.414 38.7296 171.015 38.281C170.741 37.9819 170.566 37.5333 170.467 37.1595L171.09 36.9601C171.14 37.2841 171.264 37.5831 171.439 37.7825C171.688 38.0567 171.987 38.1314 172.261 38.1314C173.059 38.1314 173.433 37.5084 173.433 36.8604C173.433 36.5863 173.358 36.337 173.158 36.1127C172.984 35.9383 172.76 35.8386 172.461 35.6641L171.937 35.39C171.713 35.2654 171.414 35.1408 171.165 34.8666C170.915 34.5925 170.766 34.2934 170.766 33.8199C170.766 32.8479 171.439 32.175 172.386 32.175C172.735 32.175 173.034 32.2498 173.308 32.4741C173.532 32.6486 173.732 32.8978 173.881 33.1719L173.358 33.5956ZM172.834 39.4772L171.937 40.6984L171.514 40.4492L172.236 39.1782L172.834 39.4772Z" fill="#414042"/>
  <path d="M176.771 35.0659L179.238 32.3245H180.111L177.394 35.3151L180.185 38.7045H179.313L176.945 35.7886L176.771 35.9631V38.7045H176.123V32.3245H176.771V35.0659Z" fill="#414042"/>
  <path d="M182.229 30.6797C182.504 30.6797 182.703 30.904 182.703 31.203C182.703 31.5021 182.504 31.7264 182.229 31.7264C181.955 31.7264 181.756 31.5021 181.756 31.203C181.756 30.904 181.955 30.6797 182.229 30.6797ZM182.553 32.3245V38.7046H181.905V32.3245H182.553Z" fill="#414042"/>
  <path d="M185.544 32.3245V38.0316H187.139V38.7045H184.896V32.3245H185.544Z" fill="#414042"/>
  <path d="M192.073 36.9104H189.606L188.908 38.7048H188.186L190.852 32.0256L193.444 38.7048H192.721L192.073 36.9104ZM191.824 36.2375L190.852 33.6954L189.855 36.2375H191.824Z" fill="#414042"/>
  <path d="M196.186 32.9974V38.7045H195.538V32.9974H194.143V32.3245H197.582V32.9974H196.186Z" fill="#414042"/>
  <path d="M199.949 32.3245V38.7045H199.326V32.3245H199.949Z" fill="#414042"/>
</svg>