<svg xmlns="http://www.w3.org/2000/svg" width="157" height="40" viewBox="0 0 157 40" fill="none">
  <g clip-path="url(#clip0_1_7223)">
    <path d="M125.322 17.3632C127.17 19.6721 128.239 22.6354 128.239 26.0579C128.239 34.3564 121.932 39.9999 113.492 39.9999C105.044 39.9999 98.7429 34.3564 98.7429 26.0579C98.7429 22.6417 99.8126 19.6721 101.66 17.3632L107.592 21.7232C106.716 22.8808 106.198 24.3466 106.198 26.0579C106.198 30.3173 109.382 33.1359 113.492 33.1359C117.602 33.1359 120.784 30.3173 120.784 26.0579C120.784 24.353 120.266 22.8808 119.39 21.7232L125.322 17.3632ZM25.041 17.0611C23.4528 13.7078 20.4383 12.1097 16.5422 12.1097C12.3219 12.1097 9.63161 14.0223 7.99148 16.8473V12.7515H0.970703V39.3581H8.20541V26.6431C8.20541 21.6917 10.0724 18.8731 14.1242 18.8731C17.359 18.8731 19.1158 20.7857 19.1158 24.6172V39.3581H26.3506V26.6431C26.3506 21.6917 28.2694 18.8731 32.3794 18.8731C35.6143 18.8731 37.3128 20.7857 37.3128 24.6172V39.3581H44.6058V23.1827C44.6058 15.9979 40.4375 12.1161 34.24 12.1161C29.9744 12.1097 26.7979 14.0287 25.041 17.0611ZM53.163 9.61204C55.8469 9.61204 57.7657 7.69943 57.7657 5.13881C57.7657 2.53413 55.8469 0.615234 53.163 0.615234C50.4792 0.615234 48.5603 2.52784 48.5603 5.13881C48.5603 7.69943 50.4792 9.61204 53.163 9.61204ZM56.7869 12.7515H49.5522V39.3581H56.7869V12.7515ZM69.5967 2.10632H62.3037V39.3581H69.5967V2.10632ZM82.1732 2.10632H74.8801V39.3581H82.1732V2.10632ZM91.2879 9.61204C93.9717 9.61204 95.8906 7.69943 95.8906 5.13881C95.8906 2.53413 93.9717 0.615234 91.2879 0.615234C88.6041 0.615234 86.6852 2.52784 86.6852 5.13881C86.6786 7.69943 88.5975 9.61204 91.2879 9.61204ZM94.9052 12.7515H87.6705V39.3581H94.9052V12.7515ZM131.364 39.3581H138.598V26.6431C138.598 21.5847 140.627 18.8731 144.465 18.8731C147.811 18.8731 149.567 20.8423 149.567 24.6172V39.3581H156.971V22.7046C156.971 15.9476 153.463 12.1161 147.318 12.1161C143.642 12.1161 140.465 13.7141 138.378 16.7969V12.7515H131.357V39.3581H131.364ZM108.7 11.2541C106.367 11.2541 104.48 13.0913 104.48 15.3498C104.48 17.6085 106.373 19.4456 108.7 19.4456C111.028 19.4456 112.921 17.6085 112.921 15.3498C112.921 13.0913 111.034 11.2541 108.7 11.2541ZM118.282 11.2541C115.948 11.2541 114.062 13.0913 114.062 15.3498C114.062 17.6085 115.955 19.4456 118.282 19.4456C120.609 19.4456 122.502 17.6085 122.502 15.3498C122.502 13.0913 120.616 11.2541 118.282 11.2541Z" fill="#EA3325"/>
  </g>
  <defs>
    <clipPath id="clip0_1_7223">
      <rect width="156" height="40" fill="white" transform="translate(0.970703)"/>
    </clipPath>
  </defs>
</svg>