<svg width="32" height="32" viewBox="0 0 32 32" fill="none" xmlns="http://www.w3.org/2000/svg">
<g id="Coins 2">
<path id="Vector" d="M24.6987 20.1121C24.6987 21.6961 22.2106 22.9817 19.1398 22.9817C16.0703 22.9817 13.582 21.6961 13.582 20.1121" stroke="white" stroke-width="1.5" stroke-linecap="round" stroke-linejoin="round"/>
<path id="Vector_2" d="M24.6969 15.0938V25.1309C24.6969 26.7149 22.2086 27.9994 19.1378 27.9994C16.0683 27.9994 13.5801 26.7149 13.5801 25.1309V15.0938" stroke="white" stroke-width="1.5" stroke-linecap="round" stroke-linejoin="round"/>
<path id="Vector_3" fill-rule="evenodd" clip-rule="evenodd" d="M24.6969 15.0935C24.6969 16.6775 22.2086 17.9633 19.1378 17.9633C16.0683 17.9633 13.5801 16.6775 13.5801 15.0935C13.5801 13.5082 16.0683 12.2239 19.1378 12.2239C22.2086 12.2239 24.6969 13.5082 24.6969 15.0935Z" stroke="white" stroke-width="1.5" stroke-linecap="round" stroke-linejoin="round"/>
<path id="Vector_4" d="M12.8617 14.7576C9.79228 14.7576 7.30273 13.4732 7.30273 11.8879" stroke="white" stroke-width="1.5" stroke-linecap="round" stroke-linejoin="round"/>
<path id="Vector_5" d="M12.8617 19.7758C9.79228 19.7758 7.30273 18.4916 7.30273 16.9062" stroke="white" stroke-width="1.5" stroke-linecap="round" stroke-linejoin="round"/>
<path id="Vector_6" d="M7.304 6.86987L7.30273 21.9252C7.30273 23.5104 9.79228 24.7948 12.8617 24.7948" stroke="white" stroke-width="1.5" stroke-linecap="round" stroke-linejoin="round"/>
<path id="Vector_7" d="M18.4207 6.86987L18.4199 12.2251" stroke="white" stroke-width="1.5" stroke-linecap="round" stroke-linejoin="round"/>
<path id="Vector_8" fill-rule="evenodd" clip-rule="evenodd" d="M18.4195 6.86965C18.4195 8.45368 15.9312 9.73932 12.8604 9.73932C9.79099 9.73932 7.30273 8.45368 7.30273 6.86965C7.30273 5.28435 9.79099 4 12.8604 4C15.9312 4 18.4195 5.28435 18.4195 6.86965Z" stroke="white" stroke-width="1.5" stroke-linecap="round" stroke-linejoin="round"/>
</g>
</svg>
