<svg width="62" height="34" viewBox="0 0 62 34" fill="none" xmlns="http://www.w3.org/2000/svg">
<rect x="1" y="1" width="60" height="32" rx="16" stroke="#2F405E"/>
<circle cx="17" cy="17" r="12" fill="#2F405E"/>
<path d="M16.6489 9.80933V9.83488M11.5736 11.9197L11.5891 11.9352M21.7088 11.9351L21.7452 11.8987M16.6489 24.1913V24.1657M11.5736 22.0809L11.5891 22.0654M9.48285 17.0052H9.44336M23.8434 17.0052H23.8093M21.7088 22.0655L21.7452 22.1019" stroke="white" stroke-linecap="round" stroke-linejoin="round"/>
<path fill-rule="evenodd" clip-rule="evenodd" d="M16.6452 13.0562C18.8212 13.0562 20.5845 14.8202 20.5845 16.9954C20.5845 19.1715 18.8212 20.9355 16.6452 20.9355C14.4691 20.9355 12.7051 19.1715 12.7051 16.9954C12.7051 14.8202 14.4691 13.0562 16.6452 13.0562Z" stroke="white" stroke-linecap="round" stroke-linejoin="round"/>
</svg>
