<svg xmlns="http://www.w3.org/2000/svg" width="24" height="24" viewBox="0 0 24 24" fill="none">
  <g clip-path="url(#clip0_43_902)">
    <path fill-rule="evenodd" clip-rule="evenodd" d="M13.0928 23.9509C19.2081 23.3988 24 18.259 24 12C24 5.37258 18.6274 0 12 0C5.37258 0 0 5.37258 0 12C0 18.6274 5.37258 24 12 24C12.0181 24 12.0361 24 12.0542 23.9999C12.0561 23.9999 12.0581 23.9999 12.06 23.9999C12.4043 23.9999 12.7486 23.9836 13.0928 23.9509ZM13.0928 23.9509C13.4086 23.921 13.7243 23.8773 14.04 23.8199V15.3599H16.68L17.22 11.9999H14.04V9.65988C14.04 8.69988 14.4 7.97988 15.84 7.97988H17.4V4.91988C16.56 4.79988 15.6 4.67988 14.76 4.67988C12 4.67988 10.08 6.35988 10.08 9.35988V11.9999H7.08003V15.3599H10.08V23.8199C10.7381 23.9395 11.3961 23.9995 12.0542 23.9999C12.4042 23.9983 12.7506 23.9818 13.0928 23.9509Z" fill="white" fill-opacity="0.5"/>
  </g>
  <defs>
    <clipPath id="clip0_43_902">
      <rect width="24" height="24" fill="white"/>
    </clipPath>
  </defs>
</svg>