<svg width="32" height="32" viewBox="0 0 32 32" fill="none" xmlns="http://www.w3.org/2000/svg">
<g id="Golds">
<path id="Vector" fill-rule="evenodd" clip-rule="evenodd" d="M26.663 26.7335H19.109C18.2656 26.7335 17.6339 25.963 17.7974 25.1379L18.6394 20.8958C18.7639 20.2704 19.3126 19.8203 19.9495 19.8203H25.821C26.4592 19.8203 27.008 20.2704 27.1326 20.8958L27.9732 25.1379C28.1379 25.963 27.5048 26.7335 26.663 26.7335Z" stroke="white" stroke-width="1.5" stroke-linecap="round" stroke-linejoin="round"/>
<path id="Vector_2" fill-rule="evenodd" clip-rule="evenodd" d="M12.8914 26.7335H5.33742C4.49419 26.7335 3.86242 25.963 4.02587 25.1379L4.8678 20.8958C4.99234 20.2704 5.54108 19.8203 6.17804 19.8203H12.0495C12.6878 19.8203 13.2365 20.2704 13.3611 20.8958L14.2017 25.1379C14.3664 25.963 13.7333 26.7335 12.8914 26.7335Z" stroke="white" stroke-width="1.5" stroke-linecap="round" stroke-linejoin="round"/>
<path id="Vector_3" fill-rule="evenodd" clip-rule="evenodd" d="M19.2996 16.5955H11.7456C10.9024 16.5955 10.2706 15.825 10.4341 14.9999L11.276 10.7578C11.4005 10.1325 11.9493 9.68237 12.5863 9.68237H18.4578C19.096 9.68237 19.6447 10.1325 19.7692 10.7578L20.6099 14.9999C20.7747 15.825 20.1416 16.5955 19.2996 16.5955Z" stroke="white" stroke-width="1.5" stroke-linecap="round" stroke-linejoin="round"/>
<path id="Vector_4" fill-rule="evenodd" clip-rule="evenodd" d="M4.23242 7.47488C5.28062 7.81476 6.1018 8.63593 6.44168 9.68413C6.78156 8.63593 7.60273 7.81476 8.65093 7.47488C7.60273 7.135 6.78156 6.31383 6.44168 5.26562C6.1018 6.31383 5.28062 7.135 4.23242 7.47488Z" stroke="white" stroke-width="1.5" stroke-linecap="round" stroke-linejoin="round"/>
</g>
</svg>
