<svg xmlns="http://www.w3.org/2000/svg" width="24" height="24" viewBox="0 0 24 24" fill="none">
  <path fill-rule="evenodd" clip-rule="evenodd" d="M5.34718 0.210004C5.62772 0.186732 7.07099 0.181641 12.0059 0.181641H15.8532C18.6258 0.186458 18.7836 0.209308 19.3103 0.285584L19.3408 0.290004C20.4804 0.454368 21.4368 0.908913 22.2188 1.65582C22.657 2.07746 22.9588 2.48982 23.2306 3.042C23.5619 3.71655 23.7246 4.35473 23.7992 5.30382C23.8152 5.50746 23.8224 8.74819 23.8224 11.9911C23.8224 15.2335 23.8157 18.4802 23.7997 18.6838C23.7261 19.6178 23.5634 20.2615 23.2424 20.9233C22.6043 22.2396 21.4315 23.1996 20.0152 23.5651C19.5015 23.6978 19.037 23.7602 18.237 23.7978C17.9515 23.8124 14.9661 23.816 11.9806 23.816C8.99518 23.816 6.01154 23.8069 5.71881 23.7942C5.0279 23.7615 4.48972 23.6924 4.00245 23.5669C2.59518 23.2033 1.40063 22.2287 0.775176 20.9306C0.447903 20.2524 0.293358 19.6324 0.21154 18.6469C0.187903 18.3669 0.182449 16.9251 0.182449 11.9942C0.182449 11.39 0.182208 10.8418 0.18199 10.3435C0.181607 9.47143 0.181292 8.75213 0.182449 8.15328C0.187096 5.37758 0.20967 5.22185 0.286453 4.69213C0.287769 4.68305 0.289101 4.67386 0.290449 4.66455C0.454994 3.526 0.90954 2.56819 1.65954 1.78964C2.07136 1.36273 2.48863 1.05819 3.01772 0.795459C3.70427 0.453641 4.33445 0.294186 5.34718 0.210004ZM8.40189 3.32528C9.3328 3.28291 9.63026 3.27255 12.0004 3.27255H11.9977C14.3686 3.27255 14.665 3.28291 15.5959 3.32528C16.525 3.36782 17.1595 3.51491 17.7159 3.73073C18.2904 3.95346 18.7759 4.25164 19.2613 4.7371C19.7468 5.22219 20.045 5.7091 20.2686 6.28309C20.4832 6.838 20.6304 7.47219 20.6741 8.40128C20.7159 9.33219 20.7268 9.62964 20.7268 11.9998C20.7268 14.37 20.7159 14.6667 20.6741 15.5976C20.6304 16.5264 20.4832 17.1607 20.2686 17.7158C20.045 18.2896 19.7468 18.7766 19.2613 19.2616C18.7764 19.7471 18.2903 20.046 17.7164 20.2689C17.1612 20.4847 16.5263 20.6318 15.5972 20.6744C14.6663 20.7167 14.3697 20.7271 11.9993 20.7271C9.62935 20.7271 9.33208 20.7167 8.40117 20.6744C7.47226 20.6318 6.83789 20.4847 6.28262 20.2689C5.70898 20.046 5.22207 19.7471 4.73717 19.2616C4.25189 18.7766 3.95371 18.2896 3.73062 17.7156C3.51498 17.1607 3.36789 16.5266 3.32517 15.5975C3.28298 14.6666 3.27244 14.37 3.27244 11.9998C3.27244 9.62964 3.28335 9.332 3.32498 8.4011C3.3668 7.47237 3.51408 6.838 3.73044 6.28291C3.95407 5.7091 4.25226 5.22219 4.73771 4.7371C5.2228 4.25182 5.70971 3.95364 6.28371 3.73073C6.83862 3.51491 7.4728 3.36782 8.40189 3.32528ZM11.7096 4.84519C11.5331 4.84511 11.3695 4.84504 11.2175 4.84528V4.8431C9.59098 4.84491 9.27898 4.85582 8.47389 4.89219C7.62298 4.93128 7.16098 5.07309 6.85335 5.1931C6.44607 5.35164 6.15517 5.54073 5.84971 5.84619C5.54426 6.15164 5.3548 6.44255 5.19662 6.84982C5.07717 7.15746 4.93498 7.61928 4.89608 8.47019C4.85426 9.39019 4.84589 9.66509 4.84589 11.9956C4.84589 14.3262 4.85426 14.6025 4.89608 15.5225C4.9348 16.3735 5.07717 16.8353 5.19662 17.1426C5.35517 17.55 5.54426 17.8402 5.84971 18.1456C6.15517 18.4511 6.44607 18.6402 6.85335 18.7984C7.16117 18.9178 7.62298 19.06 8.47389 19.0993C9.39389 19.1411 9.67007 19.1502 12.0004 19.1502C14.3306 19.1502 14.607 19.1411 15.527 19.0993C16.3779 19.0604 16.8401 18.9186 17.1473 18.7985C17.5548 18.6404 17.8448 18.4513 18.1503 18.1458C18.4557 17.8405 18.6452 17.5506 18.8033 17.1433C18.9228 16.836 19.065 16.3742 19.1039 15.5233C19.1457 14.6033 19.1548 14.3269 19.1548 11.9978C19.1548 9.66873 19.1457 9.39237 19.1039 8.47237C19.0652 7.62146 18.9228 7.15964 18.8033 6.85237C18.6448 6.4451 18.4557 6.15419 18.1503 5.84873C17.845 5.54328 17.5546 5.35419 17.1473 5.196C16.8397 5.07655 16.3779 4.93437 15.527 4.89546C14.6068 4.85364 14.3306 4.84528 12.0004 4.84528C11.8997 4.84528 11.8028 4.84523 11.7096 4.84519ZM15.6117 7.34128C15.6117 6.76291 16.0808 6.29437 16.659 6.29437V6.294C17.2372 6.294 17.7063 6.76309 17.7063 7.34128C17.7063 7.91946 17.2372 8.38855 16.659 8.38855C16.0808 8.38855 15.6117 7.91946 15.6117 7.34128ZM7.51862 11.9998C7.51862 9.52473 9.52535 7.518 12.0004 7.518C14.4755 7.518 16.4815 9.52473 16.4815 11.9998C16.4815 14.4749 14.4755 16.4807 12.0004 16.4807C9.52535 16.4807 7.51862 14.4749 7.51862 11.9998ZM14.9095 11.9998C14.9095 10.3931 13.607 9.09073 12.0004 9.09073C10.3937 9.09073 9.09135 10.3931 9.09135 11.9998C9.09135 13.6064 10.3937 14.9089 12.0004 14.9089C13.607 14.9089 14.9095 13.6064 14.9095 11.9998Z" fill="white" fill-opacity="0.5"/>
</svg>