<svg width="32" height="32" viewBox="0 0 32 32" fill="none" xmlns="http://www.w3.org/2000/svg">
<g id="Money Bag">
<path id="Vector" d="M8.92052 15.1685C9.84029 13.6377 10.8327 12.1316 11.7953 10.6242L9.1644 5.70102C9.1644 5.70102 9.36548 5.52847 9.86753 5.13928C11.3685 3.97692 13.0108 3.67595 14.7868 4.36611C16.4785 5.02383 18.1948 5.52199 20.0317 5.4182C20.5662 5.38707 22.6172 5.11464 22.6172 5.11464L20.2081 10.6151C21.1708 12.1213 22.1605 13.6377 23.0804 15.1685C24.5929 17.6853 26.0394 20.4927 24.868 23.4141C23.5045 26.8156 19.527 27.9443 15.9997 28C12.4738 27.9443 8.4963 26.8156 7.13286 23.4141C5.96141 20.4927 7.40788 17.6853 8.92052 15.1685Z" stroke="white" stroke-width="1.5" stroke-linecap="round" stroke-linejoin="round"/>
<path id="Vector_2" d="M11.7969 10.6355C14.6016 11.2802 17.4051 11.2802 20.2097 10.6355" stroke="white" stroke-width="1.5" stroke-linecap="round" stroke-linejoin="round"/>
</g>
</svg>
