<svg width="32" height="32" viewBox="0 0 32 32" fill="none" xmlns="http://www.w3.org/2000/svg">
<g id="User information - 1">
<path id="Vector" d="M27.0732 11.6435C27.0732 8.40544 25.0644 6.12012 21.8275 6.12012H9.28882C6.06322 6.12012 4.0332 8.40544 4.0332 11.6435V20.3713C4.0332 23.5982 6.05201 25.8835 9.28882 25.8835H21.8164C25.0644 25.8835 27.0732 23.5982 27.0732 20.3713V11.6435Z" stroke="white" stroke-width="1.44" stroke-linecap="round" stroke-linejoin="round"/>
<path id="Vector_2" d="M8.14062 21.142C8.14062 19.8979 9.122 18.3499 11.9503 18.3499C14.7786 18.3499 15.76 19.8867 15.76 21.1309" stroke="white" stroke-width="1.44" stroke-linecap="round" stroke-linejoin="round"/>
<path id="Vector_3" fill-rule="evenodd" clip-rule="evenodd" d="M14.3826 13.289C14.3826 14.6328 13.2929 15.7225 11.9491 15.7225C10.6054 15.7225 9.51562 14.6328 9.51562 13.289C9.51562 11.9452 10.6054 10.8555 11.9491 10.8555C13.2929 10.8555 14.3826 11.9452 14.3826 13.289Z" stroke="white" stroke-width="1.44" stroke-linecap="round" stroke-linejoin="round"/>
<path id="Vector_4" d="M18.2676 13.8855L22.7124 13.9464M19.9338 18.6239H22.7123" stroke="white" stroke-width="1.44" stroke-linecap="round" stroke-linejoin="round"/>
</g>
</svg>
